<svg width="270" height="85" viewBox="0 0 270 85" version="1.1" xmlns="http://www.w3.org/2000/svg" xmlns:xlink="http://www.w3.org/1999/xlink"><title>17F941C6-A704-4A05-911B-09C1D403B6B5</title><defs><path id="path-1" d="M0 .293v30.149h32.324V.293z"/><path id="path-3" d="M8.145.067H.155v7.051h7.99V.067z"/></defs><g id="Symbols" stroke="none" stroke-width="1" fill="none" fill-rule="evenodd"><g id="avanttic_logo"><g id="Page-1" transform="translate(18 23)"><g id="Group-3" transform="translate(0 9.939)"><mask id="mask-2" fill="#fff"><use xlink:href="#path-1"/></mask><path d="M13.237 25.615c5.425-.152 9.184-3.57 9.73-8.872.07-.678.096-1.08-.806-.876-2.977.672-5.978 1.243-8.942 1.964-1.113.271-2.202.758-3.212 1.31-1.375.753-1.814 2.07-1.604 3.557.203 1.437 1.225 2.204 2.537 2.568.74.206 1.53.238 2.297.35M19.707.292c2.42.347 4.887.51 7.252 1.084 3.899.947 5.704 3.325 5.312 7.298-.353 3.576-1.154 7.11-1.83 10.65-.381 1.992-.46 3.936.018 5.929.57 2.377-.203 3.906-2.225 4.781-2 .866-3.684.351-5.088-1.562-.485-.662-.86-1.755-1.457-1.89-.62-.139-1.458.63-2.188 1.024-4.018 2.17-8.22 3.335-12.843 2.537C3.266 29.558.835 27.65.183 24.908c-.7-2.943.647-6.217 3.308-8.181 2.836-2.093 6.186-2.667 9.525-3.31 3.165-.61 6.308-1.341 9.488-1.852 1.255-.202 1.526-.844 1.58-1.877.12-2.325-.733-3.597-3.097-3.962-3.986-.617-7.66-.035-10.371 3.38-.964 1.214-2.092 2.129-3.798 2.062-2.375-.094-3.592-1.77-2.425-3.814.826-1.447 2.045-2.784 3.369-3.813 3.076-2.392 6.8-2.88 10.577-3.018.445-.017.892-.002 1.338-.002l.03-.228" id="Fill-1" fill="#8CBA1F" mask="url(#mask-2)"/></g><path d="M90.513 26.793c.08-.815-.15-.934-.902-.772-2.336.505-4.707.865-7.025 1.44-1.66.411-3.316.95-4.864 1.668-1.445.669-2.146 2.221-1.866 3.597.291 1.436 1.207 2.348 2.647 2.684.699.162 1.415.251 2.123.374 5.352-.095 9.378-3.747 9.887-8.99zM77.78 19.537c-1.348 1.819-3.013 2.204-4.691 1.527-1.363-.55-1.853-1.503-1.457-2.904.61-2.163 2.157-3.582 3.94-4.779 2.214-1.484 4.717-2.32 7.332-2.545 3.768-.323 7.561-.44 11.285.536 4.333 1.133 6.29 4.013 5.577 8.431-.495 3.064-1.094 6.113-1.735 9.149-.478 2.262-.588 4.481-.03 6.751.495 2.009-.228 3.431-1.963 4.268-1.911.921-3.683.604-4.987-.911-.29-.336-.547-.702-.795-1.07-1.015-1.509-1.021-1.527-2.684-.573-3.652 2.096-7.526 3.314-11.788 2.972-.992-.08-2-.207-2.952-.477-2.85-.81-4.875-2.53-5.252-5.586-.405-3.283 1.05-5.818 3.694-7.687 2.37-1.674 5.135-2.337 7.924-2.89 3.382-.67 6.776-1.275 10.153-1.97.876-.18 2.09.097 2.201-1.439.156-2.166-.31-3.504-1.733-4.137-.6-.266-1.275-.392-1.93-.495-.49-.077-1-.016-1.502-.016-3.447-.019-6.425.901-8.607 3.845z" id="Fill-4" fill="#8CBA1F"/><path d="M119.848 12.805c3.401-2.043 7.077-2.572 10.935-1.708 3.141.704 6.392 3.224 5.982 7.49-.339 3.525-.958 7.024-1.505 10.526-.367 2.355-.813 4.698-1.247 7.042-.507 2.735-1.877 4.137-4.273 4.418-2.703.317-4.338-1.317-3.896-3.977.747-4.486 1.555-8.96 2.318-13.443.12-.708.193-1.433.194-2.15.003-3.257-1.843-4.878-5.135-4.549-4.07.408-7.009 2.99-7.9 7.22-.892 4.234-1.548 8.515-2.398 12.757-.555 2.77-2.456 4.21-5.074 4.046-2.182-.135-3.334-1.343-3.002-3.496.786-5.101 1.686-10.186 2.573-15.272.458-2.624.905-5.254 1.51-7.846.535-2.288 2.891-3.606 5.16-3.078 1.515.352 2.215 1.242 2.243 2.861.009.481.002.962.002 1.583 1.254-.872 2.34-1.72 3.513-2.424z" id="Fill-6" fill="#8CBA1F"/><path d="M229.962 13.167c1.766 1.059 3.148 2.489 3.793 4.487.615 1.909-.215 3.665-2.07 4.547-1.915.91-3.667.552-4.621-1.203-1.606-2.956-3.83-4.67-7.359-4.427-3.779.26-6.291 2.286-7.958 5.505-1.063 2.052-1.516 4.242-1.483 6.581.066 4.648 3.482 7.434 8.337 6.599 2.286-.393 4.3-1.457 5.849-3.277.683-.804 1.347-1.681 2.198-2.27.773-.534 1.776-.97 2.698-1.015 2.118-.1 3.332 1.725 2.628 3.742-.706 2.027-2.188 3.469-3.85 4.708-3.129 2.335-6.718 3.532-10.592 3.551-2.536.013-5.148-.127-7.597-.723-4.916-1.196-7.755-5.033-7.928-10.084-.355-10.415 7.356-18.567 17.84-18.857.446-.012.892-.001 1.338-.001 3.136-.156 6.082.52 8.777 2.137z" id="Fill-8" fill="#8CBA1F"/><path d="M148.018 40.203c-2.666-.678-4.04-2.401-3.871-5.251.153-2.592.676-5.166 1.098-7.737.512-3.122 1.06-6.238 1.656-9.344.16-.829.121-1.294-.874-1.17-.164.02-.335.005-.501-.01-1.596-.136-2.589-.86-2.722-1.98-.138-1.163.71-2.492 2.025-2.934.723-.243 1.524-.327 2.293-.345.697-.017.953-.269 1.07-.942.361-2.076.736-4.154 1.216-6.205.505-2.16 2.49-3.582 4.67-3.49 2.233.094 3.542 1.6 3.256 3.912-.238 1.926-.593 3.84-.972 5.744-.15.76.054.993.798.99 1.001-.005 2.008.017 3.002.121.998.104 1.874.507 2.042 1.635.167 1.126-.102 2.257-1.22 2.665-1.271.463-2.665.783-4.009.798-1.297.014-1.82.325-2.03 1.657-.726 4.603-1.611 9.18-2.395 13.774-.372 2.178.382 3.025 2.601 2.95.942-.031 1.875-.26 2.817-.343 1.503-.132 2.441.327 2.791 1.301.368 1.024-.091 2.194-1.244 3.008-1.804 1.273-3.93 1.44-6.032 1.664-.441.047-.891.006-1.337.006l-.02.15c-1.372-.2-2.772-.284-4.108-.624z" id="Fill-10" fill="#8CBA1F"/><path d="M169.169 40.08c-2.081-.587-3.458-2.053-3.318-4.244.2-3.144.683-6.274 1.15-9.395.41-2.745.936-5.473 1.466-8.198.201-1.03.203-1.76-1.17-1.534a1.32 1.32 0 0 1-.5-.014c-1.043-.243-2.104-.468-2.318-1.785-.188-1.157.386-2.379 1.538-2.866.752-.317 1.608-.535 2.417-.534 1.024 0 1.307-.417 1.45-1.35.314-2.027.67-4.058 1.188-6.041.553-2.12 2.66-3.424 4.853-3.218 1.978.186 3.108 1.287 2.981 3.288-.122 1.929-.53 3.842-.847 5.756-.252 1.534-.274 1.52 1.34 1.565.78.02 1.557.08 2.335.135 1.042.074 1.871.526 2.093 1.585.237 1.135-.174 2.231-1.223 2.667-1.145.476-2.436.72-3.682.808-2.05.146-2.046.061-2.415 2.14-.717 4.045-1.444 8.088-2.173 12.13-.669 3.716.144 4.55 3.912 4.009.714-.103 1.44-.293 2.145-.242 1.874.136 2.747 1.835 1.624 3.326-.562.746-1.477 1.426-2.365 1.69-1.899.562-3.884.833-5.703 1.198-1.74-.308-3.298-.458-4.778-.876z" id="Fill-12" fill="#8CBA1F"/><path d="M53.638 24.15c2.165-3.683 4.314-7.374 6.482-11.055 1.052-1.785 2.54-2.768 4.706-2.409 1.955.325 3.056 2.066 2.159 3.804-1.167 2.26-2.564 4.405-3.919 6.564-3.42 5.453-6.867 10.889-10.31 16.327-1.25 1.972-3.012 3.045-5.402 3.01-1.806-.025-3.157-.775-3.711-2.522-.854-2.693-1.62-5.414-2.377-8.136A1098.869 1098.869 0 0 1 37.5 15.938c-.808-3.054 1.308-5.555 4.484-5.396 1.726.086 2.566.772 3.028 2.767.924 3.997 1.764 8.014 2.642 12.022.45 2.052.907 4.103 1.438 6.505 1.63-2.754 3.094-5.216 4.546-7.686z" id="Fill-14" fill="#8CBA1F"/><path d="M195.997 23.086c-.782 4.424-1.534 8.853-2.37 13.267-.54 2.858-2.305 4.389-4.828 4.374-2.342-.014-3.695-1.432-3.314-3.712a1582.599 1582.599 0 0 1 3.851-22.135c.442-2.43 1.884-3.656 4.138-3.893 2.673-.281 4.015.932 3.93 4.08-.41 2.339-.904 5.18-1.407 8.019z" id="Fill-16" fill="#8CBA1F"/><g id="Group-20" transform="translate(191.15 .266)"><mask id="mask-4" fill="#fff"><use xlink:href="#path-3"/></mask><path d="M3.645 7.118C1.608 7.136.168 5.9.155 4.122.14 2.079 2.33.11 4.664.068 6.66.032 8.165 1.326 8.145 3.063c-.024 2.103-2.167 4.034-4.5 4.055" id="Fill-18" fill="#8CBA1F" mask="url(#mask-4)"/></g></g></g></g></svg>